ply
format ascii 1.0
comment VTK generated PLY File
comment PLY file generated by vedo
obj_info vtkPolyData points and polygons: vtk4.0
element vertex 10
property float x
property float y
property float z
property float nx
property float ny
property float nz
property uchar red
property uchar green
property uchar blue
element face 16
property list uchar int vertex_indices
end_header
-6 -16 -7 0 -0.7071068286895752 -0.7071068286895752 0 0 0 
-6 -14 -7 0 0.7071068286895752 -0.7071068286895752 0 0 0 
-6 -17 -6 0 -1 0 0 0 0 
-5 -16 -6 0.7071068286895752 -0.7071068286895752 0 0 0 0 
-7 -16 -6 -0.7071068286895752 -0.7071068286895752 -0 0 0 0 
-6 -16 -5 0 -0.7071068286895752 0.7071068286895752 0 0 0 
-5 -14 -6 0.7071068286895752 0.7071068286895752 0 0 0 0 
-7 -14 -6 -0.7071068286895752 0.7071068286895752 0 0 0 0 
-6 -13 -6 0 1 0 0 0 0 
-6 -14 -5 0 0.7071068286895752 0.7071068286895752 0 0 0 
3 0 2 3 
3 2 0 4 
3 1 0 3 
3 6 1 3 
3 7 4 0 
3 1 7 0 
3 1 6 8 
3 7 1 8 
3 2 5 3 
3 2 4 5 
3 5 9 6 
3 3 5 6 
3 4 7 9 
3 5 4 9 
3 6 9 8 
3 7 8 9 
