ply
format ascii 1.0
comment VTK generated PLY File
comment PLY file generated by vedo
obj_info vtkPolyData points and polygons: vtk4.0
element vertex 66
property float x
property float y
property float z
property float nx
property float ny
property float nz
property uchar red
property uchar green
property uchar blue
element face 128
property list uchar int vertex_indices
end_header
6 -20 53 0 -0.44721361994743347 -0.89442723989486694 0 0 0 
8 -18 53 0.44721361994743347 -0 -0.89442723989486694 0 0 0 
6 -18 53 0 -0 -1 0 0 0 
4 -18 53 -0.44721361994743347 0 -0.89442723989486694 0 0 0 
6 -16 53 0 0.44721361994743347 -0.89442723989486694 0 0 0 
6 -21 54 0 -0.89442723989486694 -0.44721361994743347 0 0 0 
7 -20 54 0.3333333432674408 -0.66666668653488159 -0.66666668653488159 0 0 0 
8 -19 54 0.66666668653488159 -0.3333333432674408 -0.66666668653488159 0 0 0 
8 -20 55 0.57735031843185425 -0.57735031843185425 -0.57735031843185425 0 0 0 
5 -20 54 -0.3333333432674408 -0.66666668653488159 -0.66666668653488159 0 0 0 
4 -19 54 -0.66666668653488159 -0.3333333432674408 -0.66666668653488159 0 0 0 
4 -20 55 -0.57735031843185425 -0.57735031843185425 -0.57735031843185425 0 0 0 
9 -18 54 0.89442723989486694 -0 -0.44721361994743347 0 0 0 
8 -17 54 0.66666668653488159 0.3333333432674408 -0.66666668653488159 0 0 0 
3 -18 54 -0.89442723989486694 0 -0.44721361994743347 0 0 0 
4 -17 54 -0.66666668653488159 0.3333333432674408 -0.66666668653488159 0 0 0 
7 -16 54 0.3333333432674408 0.66666668653488159 -0.66666668653488159 0 0 0 
8 -16 55 0.57735031843185425 0.57735031843185425 -0.57735031843185425 0 0 0 
5 -16 54 -0.3333333432674408 0.66666668653488159 -0.66666668653488159 0 0 0 
6 -15 54 0 0.89442723989486694 -0.44721361994743347 0 0 0 
4 -16 55 -0.57735031843185425 0.57735031843185425 -0.57735031843185425 0 0 0 
8 -21 56 0.40824830532073975 -0.81649661064147949 -0.40824830532073975 0 0 0 
6 -21 56 0 -1 0 0 0 0 
4 -21 56 -0.40824830532073975 -0.81649661064147949 -0.40824830532073975 0 0 0 
9 -20 56 0.81649661064147949 -0.40824830532073975 -0.40824830532073975 0 0 0 
3 -20 56 -0.81649661064147949 -0.40824830532073975 -0.40824830532073975 0 0 0 
9 -18 56 1 -0 0 0 0 0 
3 -18 56 -1 0 -0 0 0 0 
9 -16 56 0.81649661064147949 0.40824830532073975 -0.40824830532073975 0 0 0 
8 -15 56 0.40824830532073975 0.81649661064147949 -0.40824830532073975 0 0 0 
6 -15 56 0 1 0 0 0 0 
3 -16 56 -0.81649661064147949 0.40824830532073975 -0.40824830532073975 0 0 0 
4 -15 56 -0.40824830532073975 0.81649661064147949 -0.40824830532073975 0 0 0 
8 -21 58 0.40824830532073975 -0.81649661064147949 0.40824830532073975 0 0 0 
6 -21 58 0 -1 0 0 0 0 
4 -21 58 -0.40824830532073975 -0.81649661064147949 0.40824830532073975 0 0 0 
9 -20 58 0.81649661064147949 -0.40824830532073975 0.40824830532073975 0 0 0 
8 -20 59 0.57735031843185425 -0.57735031843185425 0.57735031843185425 0 0 0 
3 -20 58 -0.81649661064147949 -0.40824830532073975 0.40824830532073975 0 0 0 
4 -20 59 -0.57735031843185425 -0.57735031843185425 0.57735031843185425 0 0 0 
9 -18 58 1 -0 0 0 0 0 
3 -18 58 -1 0 -0 0 0 0 
9 -16 58 0.81649661064147949 0.40824830532073975 0.40824830532073975 0 0 0 
8 -15 58 0.40824830532073975 0.81649661064147949 0.40824830532073975 0 0 0 
8 -16 59 0.57735031843185425 0.57735031843185425 0.57735031843185425 0 0 0 
6 -15 58 0 1 0 0 0 0 
3 -16 58 -0.81649661064147949 0.40824830532073975 0.40824830532073975 0 0 0 
4 -15 58 -0.40824830532073975 0.81649661064147949 0.40824830532073975 0 0 0 
4 -16 59 -0.57735031843185425 0.57735031843185425 0.57735031843185425 0 0 0 
6 -21 60 0 -0.89442723989486694 0.44721361994743347 0 0 0 
7 -20 60 0.3333333432674408 -0.66666668653488159 0.66666668653488159 0 0 0 
8 -19 60 0.66666668653488159 -0.3333333432674408 0.66666668653488159 0 0 0 
5 -20 60 -0.3333333432674408 -0.66666668653488159 0.66666668653488159 0 0 0 
6 -20 61 0 -0.44721361994743347 0.89442723989486694 0 0 0 
4 -19 60 -0.66666668653488159 -0.3333333432674408 0.66666668653488159 0 0 0 
9 -18 60 0.89442723989486694 0 0.44721361994743347 0 0 0 
8 -17 60 0.66666668653488159 0.3333333432674408 0.66666668653488159 0 0 0 
8 -18 61 0.44721361994743347 0 0.89442723989486694 0 0 0 
6 -18 61 0 0 1 0 0 0 
3 -18 60 -0.89442723989486694 0 0.44721361994743347 0 0 0 
4 -17 60 -0.66666668653488159 0.3333333432674408 0.66666668653488159 0 0 0 
4 -18 61 -0.44721361994743347 0 0.89442723989486694 0 0 0 
7 -16 60 0.3333333432674408 0.66666668653488159 0.66666668653488159 0 0 0 
5 -16 60 -0.3333333432674408 0.66666668653488159 0.66666668653488159 0 0 0 
6 -15 60 0 0.89442723989486694 0.44721361994743347 0 0 0 
6 -16 61 0 0.44721361994743347 0.89442723989486694 0 0 0 
3 0 5 6 
3 5 0 9 
3 1 7 12 
3 6 7 1 
3 6 1 0 
3 0 1 2 
3 10 9 0 
3 10 0 3 
3 3 0 2 
3 10 3 14 
3 1 12 13 
3 13 16 4 
3 13 4 1 
3 1 4 2 
3 18 15 3 
3 18 3 4 
3 4 3 2 
3 14 3 15 
3 4 16 19 
3 18 4 19 
3 8 21 24 
3 8 6 5 
3 8 5 21 
3 21 5 22 
3 9 11 23 
3 9 23 5 
3 5 23 22 
3 23 11 25 
3 7 8 24 
3 7 24 12 
3 12 24 26 
3 6 8 7 
3 9 10 11 
3 11 10 14 
3 11 14 25 
3 25 14 27 
3 17 13 12 
3 17 12 28 
3 28 12 26 
3 13 17 16 
3 15 18 20 
3 15 20 31 
3 15 31 14 
3 14 31 27 
3 17 28 29 
3 16 17 29 
3 16 29 19 
3 19 29 30 
3 20 18 19 
3 20 19 32 
3 32 19 30 
3 31 20 32 
3 21 33 36 
3 24 21 36 
3 22 34 21 
3 21 34 33 
3 23 35 22 
3 22 35 34 
3 35 23 25 
3 38 35 25 
3 24 36 26 
3 36 40 26 
3 25 27 38 
3 38 27 41 
3 26 40 28 
3 40 42 28 
3 27 31 41 
3 41 31 46 
3 28 42 43 
3 29 28 43 
3 30 29 45 
3 29 43 45 
3 32 30 47 
3 30 45 47 
3 46 31 32 
3 47 46 32 
3 33 37 36 
3 50 37 33 
3 50 33 49 
3 49 33 34 
3 39 52 49 
3 39 49 35 
3 35 49 34 
3 35 38 39 
3 37 51 55 
3 37 55 36 
3 36 55 40 
3 50 51 37 
3 39 54 52 
3 54 39 38 
3 54 38 59 
3 59 38 41 
3 56 44 42 
3 56 42 55 
3 55 42 40 
3 56 62 44 
3 48 63 60 
3 48 60 59 
3 48 59 46 
3 46 59 41 
3 42 44 43 
3 44 62 64 
3 44 64 43 
3 43 64 45 
3 63 48 47 
3 63 47 64 
3 64 47 45 
3 46 47 48 
3 49 53 50 
3 49 52 53 
3 51 57 55 
3 51 50 53 
3 51 53 57 
3 57 53 58 
3 52 54 61 
3 52 61 53 
3 53 61 58 
3 54 59 61 
3 55 57 56 
3 62 56 57 
3 62 57 65 
3 65 57 58 
3 60 63 65 
3 60 65 61 
3 61 65 58 
3 59 60 61 
3 62 65 64 
3 63 64 65 
