ply
format ascii 1.0
comment VTK generated PLY File
comment PLY file generated by vedo
obj_info vtkPolyData points and polygons: vtk4.0
element vertex 16
property float x
property float y
property float z
property float nx
property float ny
property float nz
property uchar red
property uchar green
property uchar blue
element face 28
property list uchar int vertex_indices
end_header
-42 -52 -41 0 -0.44721361994743347 -0.89442723989486694 240 205 202 
-42 -50 -41 0 0.44721361994743347 -0.89442723989486694 240 205 202 
-42 -53 -40 0 -0.89442723989486694 -0.44721361994743347 240 205 202 
-41 -52 -40 0.57735031843185425 -0.57735031843185425 -0.57735031843185425 240 205 202 
-43 -52 -40 -0.57735031843185425 -0.57735031843185425 -0.57735031843185425 240 205 202 
-41 -50 -40 0.57735031843185425 0.57735031843185425 -0.57735031843185425 240 205 202 
-43 -50 -40 -0.57735031843185425 0.57735031843185425 -0.57735031843185425 240 205 202 
-42 -49 -40 0 0.89442723989486694 -0.44721361994743347 240 205 202 
-42 -53 -38 0 -0.89442723989486694 0.44721361994743347 240 205 202 
-41 -52 -38 0.57735031843185425 -0.57735031843185425 0.57735031843185425 240 205 202 
-43 -52 -38 -0.57735031843185425 -0.57735031843185425 0.57735031843185425 240 205 202 
-42 -52 -37 0 -0.44721361994743347 0.89442723989486694 240 205 202 
-41 -50 -38 0.57735031843185425 0.57735031843185425 0.57735031843185425 240 205 202 
-43 -50 -38 -0.57735031843185425 0.57735031843185425 0.57735031843185425 240 205 202 
-42 -49 -38 0 0.89442723989486694 0.44721361994743347 240 205 202 
-42 -50 -37 0 0.44721361994743347 0.89442723989486694 240 205 202 
3 0 2 3 
3 2 0 4 
3 1 0 3 
3 5 1 3 
3 6 4 0 
3 1 6 0 
3 1 5 7 
3 6 1 7 
3 2 8 9 
3 3 2 9 
3 8 2 4 
3 10 8 4 
3 3 9 5 
3 9 12 5 
3 4 6 10 
3 10 6 13 
3 5 12 14 
3 7 5 14 
3 13 6 7 
3 14 13 7 
3 8 11 9 
3 8 10 11 
3 11 15 12 
3 9 11 12 
3 10 13 15 
3 11 10 15 
3 12 15 14 
3 13 14 15 
