ply
format ascii 1.0
comment VTK generated PLY File
comment PLY file generated by vedo
obj_info vtkPolyData points and polygons: vtk4.0
element vertex 30
property float x
property float y
property float z
property float nx
property float ny
property float nz
property uchar red
property uchar green
property uchar blue
element face 56
property list uchar int vertex_indices
end_header
36 -48 -43 0 -0 -1 16 66 235 
36 -49 -42 0 -0.44721361994743347 -0.89442723989486694 16 66 235 
36 -50 -41 0 -0.89442723989486694 -0.44721361994743347 16 66 235 
37 -48 -42 0.44721361994743347 -0 -0.89442723989486694 16 66 235 
38 -48 -41 0.89442723989486694 -0 -0.44721361994743347 16 66 235 
35 -48 -42 -0.44721361994743347 0 -0.89442723989486694 16 66 235 
36 -47 -42 0 0.44721361994743347 -0.89442723989486694 16 66 235 
34 -48 -41 -0.89442723989486694 0 -0.44721361994743347 16 66 235 
36 -46 -41 0 0.89442723989486694 -0.44721361994743347 16 66 235 
36 -51 -40 0 -1 0 16 66 235 
37 -50 -40 0.44721361994743347 -0.89442723989486694 0 16 66 235 
38 -49 -40 0.89442723989486694 -0.44721361994743347 0 16 66 235 
35 -50 -40 -0.44721361994743347 -0.89442723989486694 -0 16 66 235 
36 -50 -39 0 -0.89442723989486694 0.44721361994743347 16 66 235 
34 -49 -40 -0.89442723989486694 -0.44721361994743347 -0 16 66 235 
39 -48 -40 1 -0 0 16 66 235 
38 -47 -40 0.89442723989486694 0.44721361994743347 0 16 66 235 
38 -48 -39 0.89442723989486694 0 0.44721361994743347 16 66 235 
33 -48 -40 -1 0 -0 16 66 235 
34 -47 -40 -0.89442723989486694 0.44721361994743347 0 16 66 235 
34 -48 -39 -0.89442723989486694 0 0.44721361994743347 16 66 235 
37 -46 -40 0.44721361994743347 0.89442723989486694 0 16 66 235 
35 -46 -40 -0.44721361994743347 0.89442723989486694 0 16 66 235 
36 -45 -40 0 1 0 16 66 235 
36 -46 -39 0 0.89442723989486694 0.44721361994743347 16 66 235 
36 -49 -38 0 -0.44721361994743347 0.89442723989486694 16 66 235 
37 -48 -38 0.44721361994743347 0 0.89442723989486694 16 66 235 
35 -48 -38 -0.44721361994743347 0 0.89442723989486694 16 66 235 
36 -47 -38 0 0.44721361994743347 0.89442723989486694 16 66 235 
36 -48 -37 0 0 1 16 66 235 
3 0 1 3 
3 1 0 5 
3 0 3 6 
3 5 0 6 
3 2 9 10 
3 9 2 12 
3 4 11 15 
3 10 11 4 
3 2 10 4 
3 2 4 3 
3 2 3 1 
3 5 7 14 
3 1 5 14 
3 1 14 12 
3 1 12 2 
3 14 7 18 
3 4 15 16 
3 8 16 21 
3 6 16 8 
3 6 4 16 
3 6 3 4 
3 6 8 22 
3 5 6 22 
3 5 22 19 
3 5 19 7 
3 18 7 19 
3 8 21 23 
3 22 8 23 
3 9 13 10 
3 9 12 13 
3 11 17 15 
3 11 26 17 
3 10 26 11 
3 10 25 26 
3 10 13 25 
3 20 27 25 
3 14 20 25 
3 14 25 13 
3 14 13 12 
3 14 18 20 
3 15 17 16 
3 21 28 24 
3 16 28 21 
3 16 26 28 
3 16 17 26 
3 27 24 28 
3 20 24 27 
3 20 22 24 
3 20 19 22 
3 18 19 20 
3 21 24 23 
3 22 23 24 
3 25 29 26 
3 25 27 29 
3 26 29 28 
3 27 28 29 
