ply
format ascii 1.0
comment VTK generated PLY File
comment PLY file generated by vedo
obj_info vtkPolyData points and polygons: vtk4.0
element vertex 72
property float x
property float y
property float z
property float nx
property float ny
property float nz
property uchar red
property uchar green
property uchar blue
element face 140
property list uchar int vertex_indices
end_header
-40 14 5 0.40824830532073975 -0.40824830532073975 -0.81649661064147949 0 0 0 
-42 14 5 0 -0.44721361994743347 -0.89442723989486694 0 0 0 
-44 14 5 -0.40824830532073975 -0.40824830532073975 -0.81649661064147949 0 0 0 
-40 16 5 0.40824830532073975 0.40824830532073975 -0.81649661064147949 0 0 0 
-42 16 5 0 0.44721361994743347 -0.89442723989486694 0 0 0 
-44 16 5 -0.40824830532073975 0.40824830532073975 -0.81649661064147949 0 0 0 
-40 13 6 0.3333333432674408 -0.66666668653488159 -0.66666668653488159 0 0 0 
-40 12 7 0.3333333432674408 -0.66666668653488159 -0.66666668653488159 0 0 0 
-42 13 6 0 -0.7071068286895752 -0.7071068286895752 0 0 0 
-42 12 7 0 -0.7071068286895752 -0.7071068286895752 0 0 0 
-44 13 6 -0.3333333432674408 -0.66666668653488159 -0.66666668653488159 0 0 0 
-44 12 7 -0.3333333432674408 -0.66666668653488159 -0.66666668653488159 0 0 0 
-39 14 6 0.81649661064147949 -0.40824830532073975 -0.40824830532073975 0 0 0 
-45 14 6 -0.81649661064147949 -0.40824830532073975 -0.40824830532073975 0 0 0 
-39 16 6 0.81649661064147949 0.40824830532073975 -0.40824830532073975 0 0 0 
-40 17 6 0.3333333432674408 0.66666668653488159 -0.66666668653488159 0 0 0 
-42 17 6 0 0.7071068286895752 -0.7071068286895752 0 0 0 
-45 16 6 -0.81649661064147949 0.40824830532073975 -0.40824830532073975 0 0 0 
-44 17 6 -0.3333333432674408 0.66666668653488159 -0.66666668653488159 0 0 0 
-40 18 7 0.3333333432674408 0.66666668653488159 -0.66666668653488159 0 0 0 
-42 18 7 0 0.7071068286895752 -0.7071068286895752 0 0 0 
-44 18 7 -0.3333333432674408 0.66666668653488159 -0.66666668653488159 0 0 0 
-40 11 8 0.40824830532073975 -0.81649661064147949 -0.40824830532073975 0 0 0 
-42 11 8 0 -0.89442723989486694 -0.44721361994743347 0 0 0 
-44 11 8 -0.40824830532073975 -0.81649661064147949 -0.40824830532073975 0 0 0 
-39 12 8 0.81649661064147949 -0.40824830532073975 -0.40824830532073975 0 0 0 
-45 12 8 -0.81649661064147949 -0.40824830532073975 -0.40824830532073975 0 0 0 
-39 14 8 1 -0 0 0 0 0 
-45 14 8 -1 0 -0 0 0 0 
-39 16 8 1 -0 0 0 0 0 
-45 16 8 -1 0 -0 0 0 0 
-39 18 8 0.81649661064147949 0.40824830532073975 -0.40824830532073975 0 0 0 
-40 19 8 0.40824830532073975 0.81649661064147949 -0.40824830532073975 0 0 0 
-42 19 8 0 0.89442723989486694 -0.44721361994743347 0 0 0 
-45 18 8 -0.81649661064147949 0.40824830532073975 -0.40824830532073975 0 0 0 
-44 19 8 -0.40824830532073975 0.81649661064147949 -0.40824830532073975 0 0 0 
-40 11 10 0.40824830532073975 -0.81649661064147949 0.40824830532073975 0 0 0 
-42 11 10 0 -0.89442723989486694 0.44721361994743347 0 0 0 
-44 11 10 -0.40824830532073975 -0.81649661064147949 0.40824830532073975 0 0 0 
-39 12 10 0.81649661064147949 -0.40824830532073975 0.40824830532073975 0 0 0 
-40 12 11 0.3333333432674408 -0.66666668653488159 0.66666668653488159 0 0 0 
-42 12 11 0 -0.7071068286895752 0.7071068286895752 0 0 0 
-45 12 10 -0.81649661064147949 -0.40824830532073975 0.40824830532073975 0 0 0 
-44 12 11 -0.3333333432674408 -0.66666668653488159 0.66666668653488159 0 0 0 
-39 14 10 1 -0 0 0 0 0 
-45 14 10 -1 0 -0 0 0 0 
-39 16 10 1 -0 0 0 0 0 
-45 16 10 -1 0 -0 0 0 0 
-39 18 10 0.81649661064147949 0.40824830532073975 0.40824830532073975 0 0 0 
-40 19 10 0.40824830532073975 0.81649661064147949 0.40824830532073975 0 0 0 
-40 18 11 0.3333333432674408 0.66666668653488159 0.66666668653488159 0 0 0 
-42 19 10 0 0.89442723989486694 0.44721361994743347 0 0 0 
-42 18 11 0 0.7071068286895752 0.7071068286895752 0 0 0 
-45 18 10 -0.81649661064147949 0.40824830532073975 0.40824830532073975 0 0 0 
-44 19 10 -0.40824830532073975 0.81649661064147949 0.40824830532073975 0 0 0 
-44 18 11 -0.3333333432674408 0.66666668653488159 0.66666668653488159 0 0 0 
-40 13 12 0.3333333432674408 -0.66666668653488159 0.66666668653488159 0 0 0 
-42 13 12 0 -0.7071068286895752 0.7071068286895752 0 0 0 
-44 13 12 -0.3333333432674408 -0.66666668653488159 0.66666668653488159 0 0 0 
-39 14 12 0.81649661064147949 -0.40824830532073975 0.40824830532073975 0 0 0 
-40 14 13 0.40824830532073975 -0.40824830532073975 0.81649661064147949 0 0 0 
-42 14 13 0 -0.44721361994743347 0.89442723989486694 0 0 0 
-45 14 12 -0.81649661064147949 -0.40824830532073975 0.40824830532073975 0 0 0 
-44 14 13 -0.40824830532073975 -0.40824830532073975 0.81649661064147949 0 0 0 
-39 16 12 0.81649661064147949 0.40824830532073975 0.40824830532073975 0 0 0 
-40 17 12 0.3333333432674408 0.66666668653488159 0.66666668653488159 0 0 0 
-40 16 13 0.40824830532073975 0.40824830532073975 0.81649661064147949 0 0 0 
-42 17 12 0 0.7071068286895752 0.7071068286895752 0 0 0 
-42 16 13 0 0.44721361994743347 0.89442723989486694 0 0 0 
-45 16 12 -0.81649661064147949 0.40824830532073975 0.40824830532073975 0 0 0 
-44 17 12 -0.3333333432674408 0.66666668653488159 0.66666668653488159 0 0 0 
-44 16 13 -0.40824830532073975 0.40824830532073975 0.81649661064147949 0 0 0 
3 0 6 12 
3 0 1 8 
3 6 0 8 
3 1 2 10 
3 8 1 10 
3 10 2 13 
3 3 0 12 
3 14 3 12 
3 1 0 4 
3 4 0 3 
3 2 1 5 
3 5 1 4 
3 17 13 2 
3 5 17 2 
3 3 14 15 
3 4 3 15 
3 16 4 15 
3 5 4 16 
3 18 5 16 
3 17 5 18 
3 7 22 25 
3 7 9 23 
3 22 7 23 
3 9 11 24 
3 23 9 24 
3 24 11 26 
3 6 7 25 
3 6 25 12 
3 12 25 27 
3 8 7 6 
3 9 7 8 
3 10 9 8 
3 11 9 10 
3 11 10 13 
3 11 13 26 
3 26 13 28 
3 12 27 14 
3 27 29 14 
3 13 17 28 
3 28 17 30 
3 19 15 14 
3 19 14 31 
3 31 14 29 
3 15 20 16 
3 19 20 15 
3 16 21 18 
3 20 21 16 
3 18 21 34 
3 18 34 17 
3 17 34 30 
3 19 31 32 
3 20 19 32 
3 33 20 32 
3 21 20 33 
3 35 21 33 
3 34 21 35 
3 22 36 39 
3 25 22 39 
3 23 37 22 
3 22 37 36 
3 24 38 23 
3 23 38 37 
3 38 24 26 
3 42 38 26 
3 25 39 27 
3 39 44 27 
3 26 28 42 
3 42 28 45 
3 27 44 29 
3 44 46 29 
3 28 30 45 
3 45 30 47 
3 29 46 31 
3 46 48 31 
3 30 34 47 
3 47 34 53 
3 31 48 49 
3 32 31 49 
3 33 32 51 
3 32 49 51 
3 35 33 54 
3 33 51 54 
3 53 34 35 
3 54 53 35 
3 36 40 39 
3 36 37 41 
3 40 36 41 
3 37 38 43 
3 41 37 43 
3 38 42 43 
3 40 56 59 
3 40 59 39 
3 39 59 44 
3 41 56 40 
3 57 56 41 
3 43 57 41 
3 58 57 43 
3 58 43 42 
3 58 42 62 
3 62 42 45 
3 44 59 46 
3 59 64 46 
3 45 47 62 
3 62 47 69 
3 65 50 48 
3 65 48 64 
3 64 48 46 
3 50 67 52 
3 65 67 50 
3 52 70 55 
3 67 70 52 
3 55 70 69 
3 55 69 53 
3 53 69 47 
3 48 50 49 
3 51 49 50 
3 52 51 50 
3 54 51 52 
3 55 54 52 
3 53 54 55 
3 56 60 59 
3 56 57 61 
3 60 56 61 
3 57 58 63 
3 61 57 63 
3 58 62 63 
3 60 66 64 
3 59 60 64 
3 61 68 60 
3 68 66 60 
3 63 71 61 
3 71 68 61 
3 62 69 71 
3 63 62 71 
3 64 66 65 
3 67 65 66 
3 68 67 66 
3 70 67 68 
3 71 70 68 
3 69 70 71 
