ply
format ascii 1.0
comment VTK generated PLY File
comment PLY file generated by vedo
obj_info vtkPolyData points and polygons: vtk4.0
element vertex 72
property float x
property float y
property float z
property float nx
property float ny
property float nz
property uchar red
property uchar green
property uchar blue
element face 140
property list uchar int vertex_indices
end_header
56 16 -3 0.40824830532073975 -0.40824830532073975 -0.81649661064147949 0 0 0 
54 16 -3 -0.40824830532073975 -0.40824830532073975 -0.81649661064147949 0 0 0 
58 18 -3 0.40824830532073975 -0.40824830532073975 -0.81649661064147949 0 0 0 
56 18 -3 0 -0 -1 0 0 0 
54 18 -3 0 -0 -1 0 0 0 
52 18 -3 -0.40824830532073975 -0.40824830532073975 -0.81649661064147949 0 0 0 
58 20 -3 0.40824830532073975 0.40824830532073975 -0.81649661064147949 0 0 0 
56 20 -3 0 -0 -1 0 0 0 
54 20 -3 0 -0 -1 0 0 0 
52 20 -3 -0.40824830532073975 0.40824830532073975 -0.81649661064147949 0 0 0 
56 22 -3 0.40824830532073975 0.40824830532073975 -0.81649661064147949 0 0 0 
54 22 -3 -0.40824830532073975 0.40824830532073975 -0.81649661064147949 0 0 0 
56 15 -2 0.40824830532073975 -0.81649661064147949 -0.40824830532073975 0 0 0 
54 15 -2 -0.40824830532073975 -0.81649661064147949 -0.40824830532073975 0 0 0 
57 16 -2 0.66666668653488159 -0.66666668653488159 -0.3333333432674408 0 0 0 
58 17 -2 0.66666668653488159 -0.66666668653488159 -0.3333333432674408 0 0 0 
53 16 -2 -0.66666668653488159 -0.66666668653488159 -0.3333333432674408 0 0 0 
52 17 -2 -0.66666668653488159 -0.66666668653488159 -0.3333333432674408 0 0 0 
59 18 -2 0.81649661064147949 -0.40824830532073975 -0.40824830532073975 0 0 0 
51 18 -2 -0.81649661064147949 -0.40824830532073975 -0.40824830532073975 0 0 0 
59 20 -2 0.81649661064147949 0.40824830532073975 -0.40824830532073975 0 0 0 
58 21 -2 0.66666668653488159 0.66666668653488159 -0.3333333432674408 0 0 0 
51 20 -2 -0.81649661064147949 0.40824830532073975 -0.40824830532073975 0 0 0 
52 21 -2 -0.66666668653488159 0.66666668653488159 -0.3333333432674408 0 0 0 
57 22 -2 0.66666668653488159 0.66666668653488159 -0.3333333432674408 0 0 0 
56 23 -2 0.40824830532073975 0.81649661064147949 -0.40824830532073975 0 0 0 
53 22 -2 -0.66666668653488159 0.66666668653488159 -0.3333333432674408 0 0 0 
54 23 -2 -0.40824830532073975 0.81649661064147949 -0.40824830532073975 0 0 0 
56 15 0 0.44721361994743347 -0.89442723989486694 0 0 0 0 
54 15 0 -0.44721361994743347 -0.89442723989486694 -0 0 0 0 
57 16 0 0.7071068286895752 -0.7071068286895752 0 0 0 0 
58 17 0 0.7071068286895752 -0.7071068286895752 0 0 0 0 
53 16 0 -0.7071068286895752 -0.7071068286895752 -0 0 0 0 
52 17 0 -0.7071068286895752 -0.7071068286895752 -0 0 0 0 
59 18 0 0.89442723989486694 -0.44721361994743347 0 0 0 0 
51 18 0 -0.89442723989486694 -0.44721361994743347 -0 0 0 0 
59 20 0 0.89442723989486694 0.44721361994743347 0 0 0 0 
58 21 0 0.7071068286895752 0.7071068286895752 0 0 0 0 
51 20 0 -0.89442723989486694 0.44721361994743347 0 0 0 0 
52 21 0 -0.7071068286895752 0.7071068286895752 0 0 0 0 
57 22 0 0.7071068286895752 0.7071068286895752 0 0 0 0 
56 23 0 0.44721361994743347 0.89442723989486694 0 0 0 0 
53 22 0 -0.7071068286895752 0.7071068286895752 0 0 0 0 
54 23 0 -0.44721361994743347 0.89442723989486694 0 0 0 0 
56 15 2 0.40824830532073975 -0.81649661064147949 0.40824830532073975 0 0 0 
54 15 2 -0.40824830532073975 -0.81649661064147949 0.40824830532073975 0 0 0 
57 16 2 0.66666668653488159 -0.66666668653488159 0.3333333432674408 0 0 0 
58 17 2 0.66666668653488159 -0.66666668653488159 0.3333333432674408 0 0 0 
56 16 3 0.40824830532073975 -0.40824830532073975 0.81649661064147949 0 0 0 
53 16 2 -0.66666668653488159 -0.66666668653488159 0.3333333432674408 0 0 0 
54 16 3 -0.40824830532073975 -0.40824830532073975 0.81649661064147949 0 0 0 
52 17 2 -0.66666668653488159 -0.66666668653488159 0.3333333432674408 0 0 0 
59 18 2 0.81649661064147949 -0.40824830532073975 0.40824830532073975 0 0 0 
58 18 3 0.40824830532073975 -0.40824830532073975 0.81649661064147949 0 0 0 
56 18 3 0 0 1 0 0 0 
54 18 3 0 0 1 0 0 0 
51 18 2 -0.81649661064147949 -0.40824830532073975 0.40824830532073975 0 0 0 
52 18 3 -0.40824830532073975 -0.40824830532073975 0.81649661064147949 0 0 0 
59 20 2 0.81649661064147949 0.40824830532073975 0.40824830532073975 0 0 0 
58 21 2 0.66666668653488159 0.66666668653488159 0.3333333432674408 0 0 0 
58 20 3 0.40824830532073975 0.40824830532073975 0.81649661064147949 0 0 0 
56 20 3 0 0 1 0 0 0 
54 20 3 0 0 1 0 0 0 
51 20 2 -0.81649661064147949 0.40824830532073975 0.40824830532073975 0 0 0 
52 21 2 -0.66666668653488159 0.66666668653488159 0.3333333432674408 0 0 0 
52 20 3 -0.40824830532073975 0.40824830532073975 0.81649661064147949 0 0 0 
57 22 2 0.66666668653488159 0.66666668653488159 0.3333333432674408 0 0 0 
56 23 2 0.40824830532073975 0.81649661064147949 0.40824830532073975 0 0 0 
56 22 3 0.40824830532073975 0.40824830532073975 0.81649661064147949 0 0 0 
53 22 2 -0.66666668653488159 0.66666668653488159 0.3333333432674408 0 0 0 
54 23 2 -0.40824830532073975 0.81649661064147949 0.40824830532073975 0 0 0 
54 22 3 -0.40824830532073975 0.40824830532073975 0.81649661064147949 0 0 0 
3 0 12 14 
3 0 1 13 
3 12 0 13 
3 13 1 16 
3 2 15 18 
3 14 15 2 
3 14 2 0 
3 0 2 3 
3 1 0 4 
3 4 0 3 
3 17 16 1 
3 17 1 5 
3 5 1 4 
3 17 5 19 
3 6 2 18 
3 20 6 18 
3 3 2 7 
3 7 2 6 
3 4 3 8 
3 8 3 7 
3 5 4 9 
3 9 4 8 
3 22 19 5 
3 9 22 5 
3 6 20 21 
3 21 24 10 
3 21 10 6 
3 6 10 7 
3 8 7 11 
3 11 7 10 
3 26 23 9 
3 26 9 11 
3 11 9 8 
3 22 9 23 
3 10 24 25 
3 11 10 25 
3 27 11 25 
3 26 11 27 
3 12 28 30 
3 14 12 30 
3 13 29 12 
3 12 29 28 
3 29 13 16 
3 32 29 16 
3 15 31 34 
3 18 15 34 
3 30 15 14 
3 31 15 30 
3 16 33 32 
3 17 33 16 
3 33 17 19 
3 35 33 19 
3 18 34 20 
3 34 36 20 
3 19 22 35 
3 35 22 38 
3 20 36 37 
3 21 20 37 
3 37 24 21 
3 40 24 37 
3 23 42 39 
3 26 42 23 
3 38 22 23 
3 39 38 23 
3 24 40 41 
3 25 24 41 
3 27 25 43 
3 25 41 43 
3 42 26 27 
3 43 42 27 
3 28 44 46 
3 30 28 46 
3 29 45 28 
3 28 45 44 
3 45 29 32 
3 49 45 32 
3 31 47 52 
3 34 31 52 
3 46 31 30 
3 47 31 46 
3 32 51 49 
3 33 51 32 
3 51 33 35 
3 56 51 35 
3 34 52 36 
3 52 58 36 
3 35 38 56 
3 56 38 63 
3 36 58 59 
3 37 36 59 
3 59 40 37 
3 66 40 59 
3 39 69 64 
3 42 69 39 
3 63 38 39 
3 64 63 39 
3 40 66 67 
3 41 40 67 
3 43 41 70 
3 41 67 70 
3 69 42 43 
3 70 69 43 
3 44 48 46 
3 44 45 50 
3 48 44 50 
3 45 49 50 
3 47 53 52 
3 47 46 48 
3 47 48 53 
3 53 48 54 
3 50 55 48 
3 55 54 48 
3 49 51 57 
3 49 57 50 
3 50 57 55 
3 51 56 57 
3 53 60 58 
3 52 53 58 
3 54 61 53 
3 61 60 53 
3 55 62 54 
3 62 61 54 
3 57 65 55 
3 65 62 55 
3 56 63 65 
3 57 56 65 
3 58 60 59 
3 66 59 60 
3 66 60 68 
3 68 60 61 
3 62 71 61 
3 71 68 61 
3 64 69 71 
3 64 71 65 
3 65 71 62 
3 63 64 65 
3 66 68 67 
3 70 67 68 
3 71 70 68 
3 69 70 71 
