ply
format ascii 1.0
comment VTK generated PLY File
comment PLY file generated by vedo
obj_info vtkPolyData points and polygons: vtk4.0
element vertex 30
property float x
property float y
property float z
property float nx
property float ny
property float nz
property uchar red
property uchar green
property uchar blue
element face 56
property list uchar int vertex_indices
end_header
2 -34 -35 0 -0 -1 104 124 141 
2 -35 -34 0 -0.44721361994743347 -0.89442723989486694 104 124 141 
2 -36 -33 0 -0.89442723989486694 -0.44721361994743347 104 124 141 
3 -34 -34 0.44721361994743347 -0 -0.89442723989486694 104 124 141 
4 -34 -33 0.89442723989486694 -0 -0.44721361994743347 104 124 141 
1 -34 -34 -0.44721361994743347 0 -0.89442723989486694 104 124 141 
2 -33 -34 0 0.44721361994743347 -0.89442723989486694 104 124 141 
0 -34 -33 -0.89442723989486694 0 -0.44721361994743347 104 124 141 
2 -32 -33 0 0.89442723989486694 -0.44721361994743347 104 124 141 
2 -37 -32 0 -1 0 104 124 141 
3 -36 -32 0.44721361994743347 -0.89442723989486694 0 104 124 141 
4 -35 -32 0.89442723989486694 -0.44721361994743347 0 104 124 141 
1 -36 -32 -0.44721361994743347 -0.89442723989486694 -0 104 124 141 
2 -36 -31 0 -0.89442723989486694 0.44721361994743347 104 124 141 
0 -35 -32 -0.89442723989486694 -0.44721361994743347 -0 104 124 141 
5 -34 -32 1 -0 0 104 124 141 
4 -33 -32 0.89442723989486694 0.44721361994743347 0 104 124 141 
4 -34 -31 0.89442723989486694 0 0.44721361994743347 104 124 141 
-1 -34 -32 -1 0 -0 104 124 141 
0 -33 -32 -0.89442723989486694 0.44721361994743347 0 104 124 141 
0 -34 -31 -0.89442723989486694 0 0.44721361994743347 104 124 141 
3 -32 -32 0.44721361994743347 0.89442723989486694 0 104 124 141 
1 -32 -32 -0.44721361994743347 0.89442723989486694 0 104 124 141 
2 -31 -32 0 1 0 104 124 141 
2 -32 -31 0 0.89442723989486694 0.44721361994743347 104 124 141 
2 -35 -30 0 -0.44721361994743347 0.89442723989486694 104 124 141 
3 -34 -30 0.44721361994743347 0 0.89442723989486694 104 124 141 
1 -34 -30 -0.44721361994743347 0 0.89442723989486694 104 124 141 
2 -33 -30 0 0.44721361994743347 0.89442723989486694 104 124 141 
2 -34 -29 0 0 1 104 124 141 
3 0 1 3 
3 1 0 5 
3 0 3 6 
3 5 0 6 
3 2 9 10 
3 9 2 12 
3 4 11 15 
3 10 11 4 
3 2 10 4 
3 2 4 3 
3 2 3 1 
3 5 7 14 
3 1 5 14 
3 1 14 12 
3 1 12 2 
3 14 7 18 
3 4 15 16 
3 8 16 21 
3 6 16 8 
3 6 4 16 
3 6 3 4 
3 6 8 22 
3 5 6 22 
3 5 22 19 
3 5 19 7 
3 18 7 19 
3 8 21 23 
3 22 8 23 
3 9 13 10 
3 9 12 13 
3 11 17 15 
3 11 26 17 
3 10 26 11 
3 10 25 26 
3 10 13 25 
3 20 27 25 
3 14 20 25 
3 14 25 13 
3 14 13 12 
3 14 18 20 
3 15 17 16 
3 21 28 24 
3 16 28 21 
3 16 26 28 
3 16 17 26 
3 27 24 28 
3 20 24 27 
3 20 22 24 
3 20 19 22 
3 18 19 20 
3 21 24 23 
3 22 23 24 
3 25 29 26 
3 25 27 29 
3 26 29 28 
3 27 28 29 
