ply
format ascii 1.0
comment VTK generated PLY File
comment PLY file generated by vedo
obj_info vtkPolyData points and polygons: vtk4.0
element vertex 78
property float x
property float y
property float z
property float nx
property float ny
property float nz
property uchar red
property uchar green
property uchar blue
element face 152
property list uchar int vertex_indices
end_header
-2 -16 63 0 -0 -1 48 11 253 
0 -18 65 0.40824830532073975 -0.40824830532073975 -0.81649661064147949 48 11 253 
-2 -17 64 0 -0.44721361994743347 -0.89442723989486694 48 11 253 
-2 -18 65 0 -0.7071068286895752 -0.7071068286895752 48 11 253 
-4 -18 65 -0.40824830532073975 -0.40824830532073975 -0.81649661064147949 48 11 253 
-1 -16 64 0.44721361994743347 -0 -0.89442723989486694 48 11 253 
0 -16 65 0.7071068286895752 -0 -0.7071068286895752 48 11 253 
-3 -16 64 -0.44721361994743347 0 -0.89442723989486694 48 11 253 
-2 -15 64 0 0.44721361994743347 -0.89442723989486694 48 11 253 
-4 -16 65 -0.7071068286895752 0 -0.7071068286895752 48 11 253 
0 -14 65 0.40824830532073975 0.40824830532073975 -0.81649661064147949 48 11 253 
-2 -14 65 0 0.7071068286895752 -0.7071068286895752 48 11 253 
-4 -14 65 -0.40824830532073975 0.40824830532073975 -0.81649661064147949 48 11 253 
0 -19 66 0.40824830532073975 -0.81649661064147949 -0.40824830532073975 48 11 253 
-2 -19 66 0 -0.7071068286895752 -0.7071068286895752 48 11 253 
-2 -20 67 0 -0.89442723989486694 -0.44721361994743347 48 11 253 
-4 -19 66 -0.40824830532073975 -0.81649661064147949 -0.40824830532073975 48 11 253 
1 -18 66 0.81649661064147949 -0.40824830532073975 -0.40824830532073975 48 11 253 
-5 -18 66 -0.81649661064147949 -0.40824830532073975 -0.40824830532073975 48 11 253 
1 -16 66 0.7071068286895752 -0 -0.7071068286895752 48 11 253 
2 -16 67 0.89442723989486694 -0 -0.44721361994743347 48 11 253 
-5 -16 66 -0.7071068286895752 0 -0.7071068286895752 48 11 253 
-6 -16 67 -0.89442723989486694 0 -0.44721361994743347 48 11 253 
1 -14 66 0.81649661064147949 0.40824830532073975 -0.40824830532073975 48 11 253 
0 -13 66 0.40824830532073975 0.81649661064147949 -0.40824830532073975 48 11 253 
-2 -13 66 0 0.7071068286895752 -0.7071068286895752 48 11 253 
-5 -14 66 -0.81649661064147949 0.40824830532073975 -0.40824830532073975 48 11 253 
-4 -13 66 -0.40824830532073975 0.81649661064147949 -0.40824830532073975 48 11 253 
-2 -12 67 0 0.89442723989486694 -0.44721361994743347 48 11 253 
-2 -21 68 0 -1 0 48 11 253 
-1 -20 68 0.44721361994743347 -0.89442723989486694 0 48 11 253 
0 -19 68 0.7071068286895752 -0.7071068286895752 0 48 11 253 
-3 -20 68 -0.44721361994743347 -0.89442723989486694 -0 48 11 253 
-2 -20 69 0 -0.89442723989486694 0.44721361994743347 48 11 253 
-4 -19 68 -0.7071068286895752 -0.7071068286895752 -0 48 11 253 
1 -18 68 0.7071068286895752 -0.7071068286895752 0 48 11 253 
2 -17 68 0.89442723989486694 -0.44721361994743347 0 48 11 253 
-5 -18 68 -0.7071068286895752 -0.7071068286895752 -0 48 11 253 
-6 -17 68 -0.89442723989486694 -0.44721361994743347 -0 48 11 253 
3 -16 68 1 -0 0 48 11 253 
2 -15 68 0.89442723989486694 0.44721361994743347 0 48 11 253 
2 -16 69 0.89442723989486694 0 0.44721361994743347 48 11 253 
-7 -16 68 -1 0 -0 48 11 253 
-6 -15 68 -0.89442723989486694 0.44721361994743347 0 48 11 253 
-6 -16 69 -0.89442723989486694 0 0.44721361994743347 48 11 253 
1 -14 68 0.7071068286895752 0.7071068286895752 0 48 11 253 
0 -13 68 0.7071068286895752 0.7071068286895752 0 48 11 253 
-5 -14 68 -0.7071068286895752 0.7071068286895752 0 48 11 253 
-4 -13 68 -0.7071068286895752 0.7071068286895752 0 48 11 253 
-1 -12 68 0.44721361994743347 0.89442723989486694 0 48 11 253 
-3 -12 68 -0.44721361994743347 0.89442723989486694 0 48 11 253 
-2 -11 68 0 1 0 48 11 253 
-2 -12 69 0 0.89442723989486694 0.44721361994743347 48 11 253 
0 -19 70 0.40824830532073975 -0.81649661064147949 0.40824830532073975 48 11 253 
-2 -19 70 0 -0.7071068286895752 0.7071068286895752 48 11 253 
-4 -19 70 -0.40824830532073975 -0.81649661064147949 0.40824830532073975 48 11 253 
1 -18 70 0.81649661064147949 -0.40824830532073975 0.40824830532073975 48 11 253 
0 -18 71 0.40824830532073975 -0.40824830532073975 0.81649661064147949 48 11 253 
-2 -18 71 0 -0.7071068286895752 0.7071068286895752 48 11 253 
-5 -18 70 -0.81649661064147949 -0.40824830532073975 0.40824830532073975 48 11 253 
-4 -18 71 -0.40824830532073975 -0.40824830532073975 0.81649661064147949 48 11 253 
1 -16 70 0.7071068286895752 0 0.7071068286895752 48 11 253 
0 -16 71 0.7071068286895752 0 0.7071068286895752 48 11 253 
-5 -16 70 -0.7071068286895752 0 0.7071068286895752 48 11 253 
-4 -16 71 -0.7071068286895752 0 0.7071068286895752 48 11 253 
1 -14 70 0.81649661064147949 0.40824830532073975 0.40824830532073975 48 11 253 
0 -13 70 0.40824830532073975 0.81649661064147949 0.40824830532073975 48 11 253 
0 -14 71 0.40824830532073975 0.40824830532073975 0.81649661064147949 48 11 253 
-2 -13 70 0 0.7071068286895752 0.7071068286895752 48 11 253 
-2 -14 71 0 0.7071068286895752 0.7071068286895752 48 11 253 
-5 -14 70 -0.81649661064147949 0.40824830532073975 0.40824830532073975 48 11 253 
-4 -13 70 -0.40824830532073975 0.81649661064147949 0.40824830532073975 48 11 253 
-4 -14 71 -0.40824830532073975 0.40824830532073975 0.81649661064147949 48 11 253 
-2 -17 72 0 -0.44721361994743347 0.89442723989486694 48 11 253 
-1 -16 72 0.44721361994743347 0 0.89442723989486694 48 11 253 
-3 -16 72 -0.44721361994743347 0 0.89442723989486694 48 11 253 
-2 -15 72 0 0.44721361994743347 0.89442723989486694 48 11 253 
-2 -16 73 0 0 1 48 11 253 
3 0 2 5 
3 2 0 7 
3 0 5 8 
3 7 0 8 
3 1 13 17 
3 1 3 14 
3 13 1 14 
3 3 4 16 
3 14 3 16 
3 16 4 18 
3 6 1 17 
3 19 6 17 
3 2 6 5 
3 2 3 6 
3 3 1 6 
3 7 3 2 
3 7 9 3 
3 9 4 3 
3 21 18 4 
3 9 21 4 
3 10 6 19 
3 23 10 19 
3 5 11 8 
3 5 6 11 
3 6 10 11 
3 8 9 7 
3 8 11 9 
3 11 12 9 
3 26 21 9 
3 12 26 9 
3 10 23 24 
3 11 10 24 
3 25 11 24 
3 12 11 25 
3 27 12 25 
3 26 12 27 
3 15 29 30 
3 29 15 32 
3 13 31 35 
3 17 13 35 
3 30 14 15 
3 30 31 14 
3 31 13 14 
3 15 34 32 
3 15 14 34 
3 14 16 34 
3 34 16 18 
3 37 34 18 
3 20 36 39 
3 20 35 36 
3 20 19 35 
3 19 17 35 
3 38 21 22 
3 38 37 21 
3 37 18 21 
3 38 22 42 
3 20 39 40 
3 40 19 20 
3 40 45 19 
3 45 23 19 
3 22 47 43 
3 22 21 47 
3 21 26 47 
3 42 22 43 
3 23 45 46 
3 24 23 46 
3 28 46 49 
3 28 25 46 
3 25 24 46 
3 50 25 28 
3 50 48 25 
3 48 27 25 
3 47 26 27 
3 48 47 27 
3 28 49 51 
3 50 28 51 
3 29 33 30 
3 29 32 33 
3 31 53 56 
3 35 31 56 
3 33 31 30 
3 33 54 31 
3 54 53 31 
3 32 54 33 
3 32 34 54 
3 34 55 54 
3 55 34 37 
3 59 55 37 
3 36 41 39 
3 36 61 41 
3 36 35 61 
3 35 56 61 
3 44 37 38 
3 44 63 37 
3 63 59 37 
3 38 42 44 
3 39 41 40 
3 41 45 40 
3 41 61 45 
3 61 65 45 
3 43 63 44 
3 43 47 63 
3 47 70 63 
3 42 43 44 
3 45 65 66 
3 46 45 66 
3 49 68 52 
3 49 46 68 
3 46 66 68 
3 52 48 50 
3 52 68 48 
3 68 71 48 
3 70 47 48 
3 71 70 48 
3 49 52 51 
3 50 51 52 
3 53 57 56 
3 53 54 58 
3 57 53 58 
3 54 55 60 
3 58 54 60 
3 55 59 60 
3 57 62 61 
3 56 57 61 
3 74 58 73 
3 74 62 58 
3 62 57 58 
3 73 64 75 
3 73 58 64 
3 58 60 64 
3 59 63 64 
3 60 59 64 
3 62 67 65 
3 61 62 65 
3 76 62 74 
3 76 69 62 
3 69 67 62 
3 75 69 76 
3 75 64 69 
3 64 72 69 
3 63 70 72 
3 64 63 72 
3 65 67 66 
3 68 66 67 
3 69 68 67 
3 71 68 69 
3 72 71 69 
3 70 71 72 
3 73 77 74 
3 73 75 77 
3 74 77 76 
3 75 76 77 
